<mxfile host="app.diagrams.net" modified="2024-02-24T17:44:34.133Z" agent="Mozilla/5.0 (Windows NT 10.0; Win64; x64; rv:123.0) Gecko/20100101 Firefox/123.0" version="21.6.5" etag="M1G54lhq1LtTAqnMH-zk" type="github">
  <diagram name="Page-1" id="jkl9Am6cBZEp-ofbDFHf">
    <mxGraphModel>
      <root>
        <mxCell id="0" />
        <mxCell id="1" parent="0" />
      </root>
    </mxGraphModel>
  </diagram>
</mxfile>
